<?xml version="1.0" encoding="utf-8"?>
<!-- Generator: Adobe Illustrator 21.0.2, SVG Export Plug-In . SVG Version: 6.00 Build 0)  -->
<svg version="1.1" id="Layer_1" xmlns="http://www.w3.org/2000/svg" xmlns:xlink="http://www.w3.org/1999/xlink" x="0px" y="0px"
	 viewBox="0 0 128 128" style="enable-background:new 0 0 128 128;" xml:space="preserve">
<style type="text/css">
	.st0{fill:none;}
</style>
<g>
	<rect class="st0" width="128" height="128"/>
	<g>
		<g>
			<path d="M51.7,9.8c0.2,0.1,0.4,0.3,0.6,0.5l54,76.8c0.4,0.3,0.7,0.8,0.8,1.3l3.4,34c0,0.1,0,0.2,0,0.2l0,0.1c0,0,0,0,0,0.1
				c0,0.2,0,0.5,0,0.7c0,0.2-0.1,0.4-0.2,0.6c0,0,0,0.1,0,0.1c0,0,0,0,0,0c-0.1,0.2-0.3,0.3-0.4,0.5c-0.1,0.1-0.2,0.2-0.2,0.2
				c-0.1,0.1-0.2,0.1-0.3,0.2c-0.2,0.1-0.4,0.2-0.6,0.2c0,0,0,0-0.1,0c0,0-0.1,0-0.1,0c-0.2,0-0.5,0-0.7,0c-0.2,0-0.4-0.1-0.7-0.2
				c0,0,0,0-0.1,0l-0.1-0.1c-0.1,0-0.1-0.1-0.2-0.1l-30.9-14.8c-0.5-0.3-0.8-0.7-0.9-1.2L21.7,33.5c-0.1-0.1-0.2-0.2-0.2-0.4
				l-0.6-0.8c0,0,0-0.1-0.1-0.1c-2.6-3.9-3.9-8.8-3-13.9C19.6,7.9,29.6,1,40,2.8C44.9,3.6,48.9,6.3,51.7,9.8z M52.8,19.1l-10,7
				l45.7,65c0,0,0,0,0.1,0l12.3-3.6L52.8,19.1z M105.2,119l-0.7-6.8L99,116L105.2,119z M94.2,113.7l9.8-6.8l-1.5-15
				c0,0-13.7,3.8-13.7,3.8l-8.3,11.5L94.2,113.7z M84.6,93.8C84.6,93.8,84.6,93.8,84.6,93.8L38.9,28.8l-10,7L77,104.1L84.6,93.8z
				 M22.5,19.2c-0.7,4.2,0.4,8.2,2.8,11.3l0,0l1,1.4l23.8-16.6l-1-1.5l0,0c-2.1-3.3-5.5-5.7-9.7-6.5C31.4,6,23.9,11.3,22.5,19.2z"/>
		</g>
	</g>
</g>
</svg>
