<?xml version="1.0" encoding="utf-8"?>
<!-- Generator: Adobe Illustrator 21.0.2, SVG Export Plug-In . SVG Version: 6.00 Build 0)  -->
<svg version="1.1" id="Layer_1" xmlns="http://www.w3.org/2000/svg" xmlns:xlink="http://www.w3.org/1999/xlink" x="0px" y="0px"
	 viewBox="0 0 128 128" style="enable-background:new 0 0 128 128;" xml:space="preserve">
<style type="text/css">
	.st0{fill:none;}
</style>
<g>
	<rect class="st0" width="128" height="128"/>
	<g>
		<g>
			<g>
				<path d="M50.9,115c-0.7,0-1.3-0.1-2-0.2c-2.5-0.5-4.5-2-5.9-4.1L10.3,60c-5.3-8.2-7-17.9-5-27.4S13.1,15,21.3,9.8
					c8.2-5.3,17.9-7,27.5-4.9c8.5,1.9,15.9,6.6,21.2,13.4c16.6-8.8,37.4-3.5,47.8,12.5c10.2,15.8,6.7,36.6-8.1,48.2l-3.9-4.9
					c12.2-9.6,15.1-26.8,6.7-39.9c-9-14-27.7-18-41.7-9L68,26.8l-1.7-2.7C62,17.4,55.2,12.7,47.4,11c-7.9-1.7-15.9-0.3-22.7,4.1
					C17.9,19.4,13.2,26.1,11.5,34c-1.7,7.9-0.3,15.9,4.1,22.7l32.6,50.7c0.4,0.7,1.1,1.2,1.9,1.3c0.8,0.2,1.6,0,2.3-0.4l7.2-4.6
					l3.4,5.3l-7.2,4.6C54.4,114.5,52.6,115,50.9,115z"/>
			</g>
			<g>
				<path d="M70.3,124c-1.6,0-3.1-0.4-4.5-1.2c-2.2-1.2-3.8-3.2-4.5-5.6l-9-31.1c-1.7-5.8-1-11.8,1.9-17.1
					c2.9-5.3,7.7-9.1,13.4-10.7c11-3.2,22.4,2.4,26.9,12.5c4.9-0.7,9.8,0.1,14.2,2.5c5.3,2.9,9.1,7.7,10.8,13.4l0,0
					c1.7,5.8,1,11.8-1.9,17.1c-2.9,5.3-7.7,9.1-13.4,10.7l-31.2,9C72,123.9,71.1,124,70.3,124z M73.9,63.7c-1.5,0-3,0.2-4.5,0.6
					c-8.6,2.5-13.5,11.5-11,20l9,31.1c0.2,0.8,0.8,1.4,1.5,1.8c0.7,0.4,1.5,0.5,2.3,0.3l31.2-9c4.2-1.2,7.6-3.9,9.7-7.7
					c2.1-3.8,2.6-8.1,1.4-12.3l0,0c-2.5-8.6-11.5-13.5-20-11l-3,0.9l-0.9-3c-1.2-4.1-4-7.6-7.7-9.7C79.2,64.4,76.6,63.7,73.9,63.7z"
					/>
			</g>
		</g>
	</g>
</g>
</svg>
