<?xml version="1.0" encoding="utf-8"?>
<!-- Generator: Adobe Illustrator 21.0.2, SVG Export Plug-In . SVG Version: 6.00 Build 0)  -->
<svg version="1.1" id="Layer_1" xmlns="http://www.w3.org/2000/svg" xmlns:xlink="http://www.w3.org/1999/xlink" x="0px" y="0px"
	 viewBox="0 0 48 48" style="enable-background:new 0 0 48 48;" xml:space="preserve">
<style type="text/css">
	.st0{fill:none;}
</style>
<g>
	<rect class="st0" width="48" height="48"/>
	<g id="XMLID_1_">
		<path id="XMLID_4_" d="M40.2,12.8c-0.4-1.1-1-2.1-2-3c-1-1-1.9-1.5-3-2c-1.1-0.4-2.3-0.7-4.2-0.8c-1.8-0.1-2.4-0.1-7.1-0.1
			s-5.2,0-7.1,0.1c-1.8,0.1-3.1,0.4-4.2,0.8c-1.1,0.4-2.1,1-3,2c-1,1-1.5,1.9-2,3c-0.4,1.1-0.7,2.3-0.8,4.2
			c-0.1,1.8-0.1,2.4-0.1,7.1s0,5.2,0.1,7.1c0.1,1.8,0.4,3.1,0.8,4.2c0.4,1.1,1,2.1,2,3c1,1,1.9,1.5,3,2c1.1,0.4,2.3,0.7,4.2,0.8
			c1.8,0.1,2.4,0.1,7.1,0.1s5.2,0,7.1-0.1c1.8-0.1,3.1-0.4,4.2-0.8c1.1-0.4,2.1-1,3-2c1-1,1.5-1.9,2-3c0.4-1.1,0.7-2.3,0.8-4.2
			c0.1-1.8,0.1-2.4,0.1-7.1s0-5.2-0.1-7.1C40.9,15.1,40.6,13.9,40.2,12.8z M37.9,30.9c-0.1,1.7-0.4,2.6-0.6,3.2
			c-0.3,0.8-0.7,1.4-1.3,2s-1.2,1-2,1.3c-0.6,0.2-1.5,0.5-3.2,0.6c-1.8,0.1-2.3,0.1-6.9,0.1s-5.1,0-6.9-0.1
			c-1.7-0.1-2.6-0.4-3.2-0.6c-0.8-0.3-1.4-0.7-2-1.3c-0.6-0.6-1-1.2-1.3-2c-0.2-0.6-0.5-1.5-0.6-3.2C10,29.1,9.9,28.6,9.9,24
			s0-5.1,0.1-6.9c0.1-1.7,0.4-2.6,0.6-3.2c0.3-0.8,0.7-1.4,1.3-2c0.6-0.6,1.2-1,2-1.3c0.6-0.2,1.5-0.5,3.2-0.6
			c1.8-0.1,2.4-0.1,6.9-0.1s5.1,0,6.9,0.1c1.7,0.1,2.6,0.4,3.2,0.6c0.8,0.3,1.4,0.7,2,1.3s1,1.2,1.3,2c0.2,0.6,0.5,1.5,0.6,3.2
			C38,18.9,38,19.4,38,24S38,29.1,37.9,30.9z"/>
		<path id="XMLID_3_" d="M24,15.2c-4.9,0-8.8,3.9-8.8,8.8s3.9,8.8,8.8,8.8s8.8-3.9,8.8-8.8S28.8,15.2,24,15.2z M24,29.7
			c-3.1,0-5.7-2.6-5.7-5.7c0-3.1,2.6-5.7,5.7-5.7s5.7,2.6,5.7,5.7C29.7,27.1,27.1,29.7,24,29.7z"/>
		<circle id="XMLID_2_" cx="33.1" cy="14.9" r="2.1"/>
	</g>
</g>
</svg>
