<?xml version="1.0" encoding="utf-8"?>
<!-- Generator: Adobe Illustrator 21.0.2, SVG Export Plug-In . SVG Version: 6.00 Build 0)  -->
<svg version="1.1" id="Layer_1" xmlns="http://www.w3.org/2000/svg" xmlns:xlink="http://www.w3.org/1999/xlink" x="0px" y="0px"
	 viewBox="0 0 128 128" style="enable-background:new 0 0 128 128;" xml:space="preserve">
<style type="text/css">
	.st0{fill:none;}
</style>
<g>
	<rect class="st0" width="128" height="128"/>
	<g>
		<g>
			<g id="People_8_">
				<g id="Icon-9_8_" transform="translate(-2.000000, 0.000000)">
					<path id="android-brain_8_" d="M48.9,57.6c0,1.2,1,2.1,2.1,2.1s2.1-1,2.1-2.1c0-1.2-1-2.1-2.1-2.1S48.9,56.4,48.9,57.6
						L48.9,57.6z M53.1,96c0-1.2-1-2.1-2.1-2.1s-2.1,1-2.1,2.1s1,2.1,2.1,2.1S53.1,97.2,53.1,96L53.1,96z M36,57.6
						c0-1.2-1-2.1-2.1-2.1s-2.1,1-2.1,2.1c0,1.2,1,2.1,2.1,2.1S36,58.8,36,57.6L36,57.6z M36,83.2c0-1.2-1-2.1-2.1-2.1
						s-2.1,1-2.1,2.1c0,1.2,1,2.1,2.1,2.1S36,84.4,36,83.2L36,83.2z M48.9,36.3c0,1.2,1,2.1,2.1,2.1s2.1-1,2.1-2.1s-1-2.1-2.1-2.1
						S48.9,35.1,48.9,36.3L48.9,36.3z M36,38.4v13.2c1.8,0.6,3.2,2.1,3.9,3.9H45c0.9-2.5,3.2-4.3,6-4.3c3.5,0,6.4,2.9,6.4,6.4
						c0,2.8-1.8,5.1-4.3,6V90c2.5,0.9,4.3,3.2,4.3,6s-1.8,5.1-4.3,6v6.8c0,1.2-1,2.1-2.1,2.1s-2.1-1-2.1-2.1V102
						c-2.2-0.8-3.8-2.7-4.2-5l-8-8c0,0,0,0,0,0c-0.8,0.4-1.8,0.6-2.8,0.6c-3.5,0-6.4-2.9-6.4-6.4c0-3.5,2.9-6.4,6.4-6.4
						s6.4,2.9,6.4,6.4c0,1-0.2,1.9-0.6,2.7c0,0,0,0,0,0l6.2,6.2c0.8-1,1.8-1.7,3-2.2V63.6C47,63,45.6,61.5,45,59.7h-5.1
						c-0.9,2.5-3.2,4.3-6,4.3c-3.5,0-6.4-2.9-6.4-6.4c0-2.8,1.8-5.1,4.3-6V36.3c0-1.2,1-2.1,2.1-2.1H45c0.6-1.8,2.1-3.2,3.9-3.9
						v-6.8c0-1.2,1-2.1,2.1-2.1s2.1,1,2.1,2.1v6.8c2.5,0.9,4.3,3.2,4.3,6c0,3.5-2.9,6.4-6.4,6.4c-2.8,0-5.1-1.8-6-4.3H36z
						 M120.9,79.5c3.2-2.8,5.1-6.8,5.1-11.2c0-4.6-2-8.8-5.5-11.6c0.8-1.7,1.3-3.6,1.3-5.5c0-4.4-2.3-8.5-6-10.8
						c1.1-1.9,1.7-4.1,1.7-6.3c0-5.5-3.5-10.3-8.6-12.1c0-0.2,0-0.5,0-0.7c0-7.1-5.8-12.8-12.9-12.8c-1.7,0-3.4,0.3-5,1
						C89.2,4,83.9,0,77.8,0c-9,0-13,8.1-13.9,12.4c0,0.1,0,0.1,0,0.2c0,0.1,0,0.1,0,0.2v100.1c-0.5,6.1-5.7,10.8-11.8,10.8
						c-6.1,0-11.3-4.8-11.7-10.8c-0.1-1.1-1.1-2-2.2-2c-0.7,0-1.3,0.3-1.7,0.8c-1.7,2.2-4.2,3.4-6.9,3.4c-4.7,0-8.6-3.8-8.6-8.5
						c0-1.9,0.7-3.8,2-5.4c0.6-0.7,0.6-1.7,0.2-2.5c-0.5-0.8-1.4-1.2-2.3-0.9c-0.7,0.2-1.4,0.2-2,0.2c-4.7,0-8.6-3.8-8.6-8.5
						c0-3.5,2.2-6.7,5.6-8c0.8-0.3,1.3-1,1.4-1.9c0-0.8-0.4-1.6-1.2-2c-3.6-1.8-5.8-5.5-5.8-9.5c0-3.8,1.9-7.2,5.2-9.1
						c0.5-0.3,0.9-0.8,1-1.4c0.1-0.6,0-1.2-0.3-1.7c-1-1.5-1.6-3.1-1.6-4.9c0-3.5,2.3-6.7,5.6-8c0.7-0.2,1.2-0.8,1.3-1.5
						c0.2-0.7,0-1.4-0.5-1.9c-1.4-1.6-2.2-3.6-2.2-5.7c0-4.1,3-7.7,7.1-8.4c0.6-0.1,1.1-0.4,1.4-0.9s0.4-1.1,0.3-1.6
						c-0.1-0.7-0.2-1.3-0.2-1.9c0-4.7,3.8-8.5,8.6-8.5c1.9,0,3.6,0.6,5.2,1.8c0.6,0.5,1.5,0.6,2.2,0.3c0.7-0.3,1.2-1,1.3-1.8
						c0.4-4.9,4.6-8.8,9.6-8.8c2.4,0,4.4,0.8,6,2.3c0.9,0.8,2.2,0.8,3-0.1c0.8-0.9,0.8-2.2-0.1-3c-2.5-2.3-5.5-3.5-9-3.5
						C48.1,0,42.8,4,41,9.6c-1.6-0.7-3.3-1-5-1c-7.1,0-12.9,5.7-12.9,12.8c0,0.2,0,0.5,0,0.7c-5.1,1.8-8.6,6.6-8.6,12.1
						c0,2.2,0.6,4.4,1.7,6.3c-3.7,2.3-6,6.4-6,10.8c0,1.9,0.4,3.8,1.3,5.5C8,59.5,6,63.7,6,68.3c0,4.4,1.9,8.4,5.1,11.2
						C7.9,81.8,6,85.6,6,89.6c0,6.6,5,12,11.5,12.7c-0.5,1.4-0.8,2.8-0.8,4.3c0,7.1,5.8,12.8,12.9,12.8c2.7,0,5.2-0.8,7.3-2.3
						c2.2,6.3,8.2,10.8,15.2,10.8c8.4,0,15.4-6.5,16.1-14.8c0,0,0-0.1,0-0.1c0,0,0-0.1,0-0.1V13c0.3-1.3,2.4-8.8,9.6-8.8
						c5,0,9.2,3.9,9.6,8.8c0.1,0.8,0.6,1.5,1.3,1.8c0.7,0.3,1.5,0.2,2.2-0.3c1.5-1.2,3.3-1.8,5.2-1.8c4.7,0,8.6,3.8,8.6,8.5
						c0,0.6-0.1,1.2-0.2,1.9c-0.1,0.6,0,1.2,0.3,1.6s0.8,0.8,1.4,0.9c4.1,0.7,7.1,4.2,7.1,8.4c0,2.1-0.8,4.1-2.2,5.7
						c-0.5,0.5-0.7,1.3-0.5,1.9c0.2,0.7,0.7,1.2,1.3,1.5c3.4,1.2,5.6,4.4,5.6,8c0,1.7-0.5,3.4-1.6,4.9c-0.3,0.5-0.5,1.1-0.3,1.7
						c0.1,0.6,0.5,1.1,1,1.4c3.3,2,5.2,5.4,5.2,9.1c0,4-2.2,7.6-5.8,9.5c-0.7,0.4-1.2,1.2-1.2,2c0,0.8,0.6,1.6,1.4,1.9
						c3.3,1.2,5.6,4.4,5.6,8c0,4.7-3.8,8.5-8.6,8.5c-0.6,0-1.2-0.1-2-0.2c-0.9-0.2-1.8,0.2-2.3,0.9c-0.5,0.8-0.4,1.8,0.2,2.5
						c1.3,1.6,2,3.4,2,5.4c0,4.7-3.8,8.5-8.6,8.5c-2.7,0-5.2-1.3-6.9-3.5c-0.6-0.7-1.5-1-2.4-0.8c-0.3,0.1-0.6,0.3-0.8,0.5
						c-0.4,0.4-0.7,0.9-0.7,1.4c-0.5,6.1-5.6,10.8-11.7,10.8c-2.7,0-5.2-0.9-7.4-2.5c-0.9-0.7-2.3-0.6-3,0.3c-0.7,0.9-0.6,2.3,0.3,3
						c2.8,2.2,6.4,3.5,10,3.5c7,0,13-4.5,15.2-10.8c2.1,1.5,4.6,2.3,7.3,2.3c7.1,0,12.9-5.7,12.9-12.8c0-1.5-0.3-3-0.8-4.3
						c6.4-0.7,11.5-6.1,11.5-12.7C126,85.6,124.1,81.8,120.9,79.5L120.9,79.5z M83.1,96c0,1.2,1,2.1,2.1,2.1c3.1,0,6.4,3.3,6.4,6.4
						c0,1.2,1,2.1,2.1,2.1c1.2,0,2.1-1,2.1-2.1c0-5.5-5.2-10.7-10.7-10.7C84.1,93.9,83.1,94.8,83.1,96L83.1,96z M102.4,38.4
						c-3.1,0-6.4-3.3-6.4-6.4c0-1.2-1-2.1-2.1-2.1c-1.2,0-2.1,1-2.1,2.1c0,5.5,5.2,10.7,10.7,10.7c1.2,0,2.1-1,2.1-2.1
						S103.6,38.4,102.4,38.4L102.4,38.4z M76.7,85.3c1.2,0,2.1-1,2.1-2.1c0-3.1,3.3-6.4,6.4-6.4c1.2,0,2.1-1,2.1-2.1s-1-2.1-2.1-2.1
						c-5.5,0-10.7,5.2-10.7,10.7C74.6,84.4,75.5,85.3,76.7,85.3L76.7,85.3z M85.3,59.7c1.2,0,2.1-1,2.1-2.1c0-1.2-1-2.1-2.1-2.1
						c-3.1,0-6.4-3.3-6.4-6.4c0-1.2-1-2.1-2.1-2.1s-2.1,1-2.1,2.1C74.6,54.5,79.8,59.7,85.3,59.7L85.3,59.7z M106.7,51.2
						c-1.2,0-2.1,1-2.1,2.1c0,3.1-3.3,6.4-6.4,6.4c-1.2,0-2.1,1-2.1,2.1c0,1.2,1,2.1,2.1,2.1c5.5,0,10.7-5.2,10.7-10.7
						C108.9,52.2,107.9,51.2,106.7,51.2L106.7,51.2z M98.1,76.8c-1.2,0-2.1,1-2.1,2.1s1,2.1,2.1,2.1c3.1,0,6.4,3.3,6.4,6.4
						c0,1.2,1,2.1,2.1,2.1s2.1-1,2.1-2.1C108.9,82,103.7,76.8,98.1,76.8L98.1,76.8z M74.6,29.9c0-5.5,5.2-10.7,10.7-10.7
						c1.2,0,2.1,1,2.1,2.1c0,1.2-1,2.1-2.1,2.1c-3.1,0-6.4,3.3-6.4,6.4c0,1.2-1,2.1-2.1,2.1S74.6,31,74.6,29.9L74.6,29.9z"/>
				</g>
			</g>
		</g>
	</g>
</g>
</svg>
