<?xml version="1.0" encoding="utf-8"?>
<!-- Generator: Adobe Illustrator 21.0.2, SVG Export Plug-In . SVG Version: 6.00 Build 0)  -->
<svg version="1.1" id="Layer_1" xmlns="http://www.w3.org/2000/svg" xmlns:xlink="http://www.w3.org/1999/xlink" x="0px" y="0px"
	 viewBox="0 0 48 48" style="enable-background:new 0 0 48 48;" xml:space="preserve">
<style type="text/css">
	.st0{fill:none;}
</style>
<g>
	<rect class="st0" width="48" height="48"/>
	<g id="XMLID_5_">
		<path id="XMLID_7_" d="M4.6,13.3h8.3v26.7H4.6V13.3z M8.8,0c2.7,0,4.8,2.2,4.8,4.8s-2.2,4.8-4.8,4.8C6.1,9.6,4,7.5,4,4.8
			S6.1,0,8.8,0"/>
		<path id="XMLID_6_" d="M18.2,13.3h7.9v3.7h0.1c1.1-2.1,3.8-4.3,7.8-4.3c8.4,0,9.9,5.5,9.9,12.7v14.6h-8.3V27c0-3.1,0-7.1-4.3-7.1
			c-4.3,0-5,3.4-5,6.8v13.2h-8.3L18.2,13.3L18.2,13.3z"/>
	</g>
</g>
</svg>
