<?xml version="1.0" encoding="utf-8"?>
<!-- Generator: Adobe Illustrator 21.0.2, SVG Export Plug-In . SVG Version: 6.00 Build 0)  -->
<svg version="1.1" id="Layer_1" xmlns="http://www.w3.org/2000/svg" xmlns:xlink="http://www.w3.org/1999/xlink" x="0px" y="0px"
	 viewBox="0 0 48 48" style="enable-background:new 0 0 48 48;" xml:space="preserve">
<style type="text/css">
	.st0{fill:none;}
</style>
<g>
	<rect x="0" class="st0" width="48" height="48"/>
	<path d="M17.4,12.5v25.9c0,0.4-0.1,0.7-0.3,0.9c-0.2,0.3-0.5,0.4-0.8,0.4c-0.3,0-0.5-0.1-0.7-0.2L5.3,34.4C5,34.3,4.7,34,4.5,33.7
		s-0.3-0.7-0.3-1V7.4c0-0.3,0.1-0.5,0.2-0.8C4.5,6.5,4.8,6.4,5,6.4c0.2,0,0.5,0.1,1,0.3l11.3,5.7C17.4,12.4,17.4,12.5,17.4,12.5z
		 M18.8,14.7l11.8,19.2L18.8,28V14.7z M43.8,15.1v23.3c0,0.4-0.1,0.7-0.3,0.9c-0.2,0.2-0.5,0.3-0.8,0.3c-0.4,0-0.7-0.1-1-0.3
		l-9.8-4.9L43.8,15.1z M43.8,12.5c0,0-1.9,3.1-5.7,9.3s-6,9.7-6.6,10.8l-8.6-14L30,6.9c0.3-0.4,0.6-0.6,1.2-0.6c0.2,0,0.4,0,0.6,0.1
		l12,6C43.7,12.4,43.8,12.4,43.8,12.5z"/>
</g>
</svg>
