<?xml version="1.0" encoding="utf-8"?>
<!-- Generator: Adobe Illustrator 21.0.2, SVG Export Plug-In . SVG Version: 6.00 Build 0)  -->
<svg version="1.1" id="Layer_1" xmlns="http://www.w3.org/2000/svg" xmlns:xlink="http://www.w3.org/1999/xlink" x="0px" y="0px"
	 viewBox="0 0 48 48" style="enable-background:new 0 0 48 48;" xml:space="preserve">
<path id="XMLID_22_" d="M16.7,40.1c14.9,0,23.1-12.4,23.1-23.1c0-0.3,0-0.7,0-1.1c1.6-1.2,3-2.6,4.1-4.2c-1.5,0.7-3.1,1.1-4.7,1.3
	c1.7-1,3-2.6,3.6-4.5c-1.6,0.9-3.3,1.6-5.2,2c-3.1-3.3-8.2-3.4-11.5-0.3c-2.1,2-3,4.9-2.3,7.8C17.2,17.6,11.1,14.5,7,9.4
	c-2.2,3.7-1.1,8.5,2.5,10.8c-1.3,0-2.6-0.4-3.7-1c0,0,0,0.1,0,0.1c0,3.9,2.7,7.2,6.5,8c-1.2,0.3-2.4,0.4-3.7,0.1
	c1.1,3.3,4.1,5.6,7.6,5.6c-2.9,2.3-6.4,3.5-10.1,3.5c-0.6,0-1.3,0-1.9-0.1C7.9,38.8,12.2,40.1,16.7,40.1"/>
</svg>
