<?xml version="1.0" encoding="utf-8"?>
<!-- Generator: Adobe Illustrator 21.0.2, SVG Export Plug-In . SVG Version: 6.00 Build 0)  -->
<svg version="1.1" id="Layer_1" xmlns="http://www.w3.org/2000/svg" xmlns:xlink="http://www.w3.org/1999/xlink" x="0px" y="0px"
	 viewBox="0 0 128 128" style="enable-background:new 0 0 128 128;" xml:space="preserve">
<style type="text/css">
	.st0{fill:none;}
</style>
<g>
	<rect class="st0" width="128" height="128"/>
	<g>
		<g>
			<path d="M21.5,61.7h-1.3c-1.3,0-2.3,1-2.3,2.3s1,2.3,2.3,2.3h1.3c1.3,0,2.3-1,2.3-2.3S22.8,61.7,21.5,61.7z"/>
			<path d="M106.5,66.3h1.3c1.3,0,2.3-1,2.3-2.3s-1-2.3-2.3-2.3h-1.3c-1.3,0-2.3,1-2.3,2.3S105.2,66.3,106.5,66.3z"/>
			<path d="M28.3,40.7l-1.1-0.6c-1.1-0.6-2.5-0.3-3.2,0.8c-0.6,1.1-0.3,2.5,0.8,3.2l1.1,0.6c0.4,0.2,0.8,0.3,1.2,0.3
				c0.8,0,1.6-0.4,2-1.2C29.8,42.8,29.5,41.4,28.3,40.7z"/>
			<path d="M44.1,24.9c-0.6-1.1-2.1-1.5-3.2-0.8c-1.1,0.6-1.5,2.1-0.8,3.2l0.6,1.1c0.4,0.7,1.2,1.2,2,1.2c0.4,0,0.8-0.1,1.2-0.3
				c1.1-0.6,1.5-2.1,0.8-3.2L44.1,24.9z"/>
			<path d="M100.8,45.1c0.4,0,0.8-0.1,1.2-0.3l1.1-0.6c1.1-0.6,1.5-2.1,0.9-3.2s-2.1-1.5-3.2-0.9l-1.1,0.6c-1.1,0.6-1.5,2.1-0.9,3.2
				C99.2,44.7,100,45.1,100.8,45.1z"/>
			<path d="M87.3,28.3l0.6-1.1c0.6-1.1,0.3-2.5-0.8-3.2c-1.1-0.6-2.5-0.3-3.2,0.8L83.2,26c-0.6,1.1-0.3,2.5,0.8,3.2
				c0.4,0.2,0.8,0.3,1.2,0.3C86.1,29.5,86.8,29.1,87.3,28.3z"/>
			<path d="M64,23.8c1.3,0,2.3-1,2.3-2.3v-1.3c0-1.3-1-2.3-2.3-2.3s-2.3,1-2.3,2.3v1.3C61.7,22.8,62.7,23.8,64,23.8z"/>
			<path d="M64.7,43.9l-1.7,6.5l6.8-3.9l-5.5,20.4c-0.1,0-0.2,0-0.3,0c-7,0-12.6,5.7-12.6,12.6S57,92.1,64,92.1s12.6-5.7,12.6-12.6
				c0-5.3-3.2-9.8-7.8-11.7l5.4-20.2l3.9,6.8l1.7-6.5l-5.6-9.6L64.7,43.9z M72,79.5c0,4.4-3.6,8-8,8s-8-3.6-8-8c0-4.4,3.6-8,8-8
				S72,75.1,72,79.5z"/>
			<path d="M64,5C31.5,5,5,31.5,5,64s26.5,59,59,59s59-26.5,59-59S96.5,5,64,5z M64,118.4c-23.7,0-44-15.3-51.4-36.6h28.2
				c1.3,0,2.3-1,2.3-2.3s-1-2.3-2.3-2.3H11.3c-1-4.2-1.6-8.6-1.6-13.1C9.6,34,34,9.6,64,9.6S118.4,34,118.4,64
				c0,4.5-0.6,8.9-1.6,13.1H87.2c-1.3,0-2.3,1-2.3,2.3s1,2.3,2.3,2.3h28.2C108,103,87.7,118.4,64,118.4z"/>
		</g>
	</g>
</g>
</svg>
